<svg width="118" height="109" viewBox="0 0 118 109" fill="none" xmlns="http://www.w3.org/2000/svg">
<path d="M117.038 63.8142L106.392 63.3366L106.405 57.5138L117.051 57.9915L117.038 63.8142ZM57.2976 60.4015L47.4198 59.9583L47.4326 54.1356L57.3104 54.5787L57.2976 60.4015ZM69.5113 63.4033C70.8527 63.4635 71.9629 63.3058 72.8419 62.9301C73.7208 62.5545 74.4905 61.9175 75.1511 61.0194C75.8117 60.1212 76.4729 58.9178 77.1348 57.4093C78.459 54.2213 79.8189 51.4134 81.2146 48.9855C82.6102 46.5821 84.3461 44.7188 86.4223 43.3958C88.4985 42.0973 91.1951 41.5224 94.512 41.6712C97.5363 41.8069 100.169 42.6697 102.409 44.2596C104.65 45.8739 106.377 48.0268 107.591 50.7182C108.829 53.4352 109.444 56.527 109.436 59.9938C109.43 62.6305 109.035 65.0178 108.25 67.1556C107.464 69.2935 106.326 71.1225 104.835 72.6426C103.368 74.1639 101.561 75.3036 99.4124 76.0618C97.2886 76.8211 94.8731 77.14 92.1659 77.0186L92.193 64.6773C93.5832 64.7396 94.7786 64.6468 95.7792 64.3987C96.7798 64.175 97.5977 63.821 98.233 63.3368C98.8682 62.8525 99.3329 62.2752 99.6271 61.6047C99.9457 60.9353 100.106 60.1978 100.108 59.3922C100.11 58.1715 99.8442 57.1707 99.3093 56.3898C98.7988 55.6099 98.1171 55.03 97.2642 54.6499C96.4113 54.2698 95.4605 54.0562 94.4117 54.0092C93.3142 53.9599 92.3504 54.0998 91.5204 54.4288C90.7147 54.7833 89.9571 55.4086 89.2478 56.3046C88.5629 57.2017 87.8528 58.4395 87.1175 60.018C85.7691 63.1316 84.3727 65.9013 82.9283 68.3269C81.4838 70.7526 79.7113 72.6264 77.6106 73.9483C75.5344 75.2957 72.8499 75.8956 69.5574 75.7479C66.3867 75.6056 63.6811 74.7395 61.4406 73.1496C59.2244 71.5608 57.5339 69.4095 56.369 66.6959C55.2042 63.9822 54.6256 60.8798 54.6333 57.3886C54.6384 55.0449 54.9484 52.727 55.5632 50.435C56.178 48.1675 57.1704 46.1122 58.5404 44.2692C59.9348 42.4517 61.7795 41.0328 64.0746 40.0126C66.3696 38.9924 69.1879 38.5573 72.5292 38.7072L72.5021 51.0485C70.868 50.9752 69.5018 51.1092 68.4034 51.4506C67.305 51.792 66.4258 52.2775 65.7658 52.9071C65.1302 53.5623 64.6651 54.3105 64.3706 55.1519C64.1004 55.9943 63.9643 56.8794 63.9623 57.8072C63.9595 59.0523 64.2012 60.0764 64.6873 60.8795C65.1977 61.6837 65.8672 62.2876 66.6956 62.691C67.5484 63.1199 68.487 63.3573 69.5113 63.4033Z" fill="#07BB39"/>
<path d="M45.4418 83.9378C41.3168 83.9378 37.6293 83.2972 34.3793 82.0159C31.1293 80.7034 28.3793 78.9066 26.1293 76.6253C23.9105 74.3441 22.2074 71.7191 21.0199 68.7503C19.8636 65.7816 19.2855 62.6409 19.2855 59.3284V57.5472C19.2855 53.8284 19.8011 50.3909 20.8324 47.2347C21.8636 44.0472 23.3949 41.2659 25.4261 38.8909C27.4574 36.5159 30.0043 34.6722 33.0668 33.3597C36.1293 32.0159 39.6918 31.3441 43.7543 31.3441C47.348 31.3441 50.5668 31.9222 53.4105 33.0784C56.2543 34.2347 58.6605 35.8909 60.6293 38.0472C62.6293 40.2034 64.1449 42.8128 65.1761 45.8753C66.2386 48.9378 66.7699 52.3753 66.7699 56.1878V62.6097H25.3324V52.7191H51.348V51.5003C51.3793 49.8128 51.0824 48.3753 50.4574 47.1878C49.8636 46.0003 48.9886 45.0941 47.8324 44.4691C46.6761 43.8441 45.2699 43.5316 43.6136 43.5316C41.8949 43.5316 40.473 43.9066 39.348 44.6566C38.2543 45.4066 37.3949 46.4378 36.7699 47.7503C36.1761 49.0316 35.7543 50.5159 35.5043 52.2034C35.2543 53.8909 35.1293 55.6722 35.1293 57.5472V59.3284C35.1293 61.2034 35.3793 62.9066 35.8793 64.4378C36.4105 65.9691 37.1605 67.2816 38.1293 68.3753C39.1293 69.4378 40.3168 70.2659 41.6918 70.8597C43.098 71.4534 44.6918 71.7503 46.473 71.7503C48.6293 71.7503 50.7543 71.3441 52.848 70.5316C54.9418 69.7191 56.7386 68.3753 58.2386 66.5003L65.4105 75.0316C64.3793 76.5003 62.9105 77.9222 61.0043 79.2972C59.1293 80.6722 56.8793 81.7972 54.2543 82.6722C51.6293 83.5159 48.6918 83.9378 45.4418 83.9378Z" fill="white"/>
</svg>
